<?xml version="1.0" encoding="UTF-8" standalone="no"?>
<svg
   width="568"
   height="568"
   viewBox="0 0 568 568"
   fill="none"
   version="1.1"
   id="svg1"
   sodipodi:docname="bluesky.svg"
   inkscape:version="1.4 (e7c3feb100, 2024-10-09)"
   xmlns:inkscape="http://www.inkscape.org/namespaces/inkscape"
   xmlns:sodipodi="http://sodipodi.sourceforge.net/DTD/sodipodi-0.dtd"
   xmlns="http://www.w3.org/2000/svg"
   xmlns:svg="http://www.w3.org/2000/svg">
  <defs
     id="defs1" />
  <sodipodi:namedview
     id="namedview1"
     pagecolor="#ffffff"
     bordercolor="#000000"
     borderopacity="0.25"
     inkscape:showpageshadow="2"
     inkscape:pageopacity="0.0"
     inkscape:pagecheckerboard="0"
     inkscape:deskcolor="#d1d1d1"
     inkscape:zoom="0.73"
     inkscape:cx="286.30137"
     inkscape:cy="228.76712"
     inkscape:window-width="1225"
     inkscape:window-height="1004"
     inkscape:window-x="0"
     inkscape:window-y="0"
     inkscape:window-maximized="0"
     inkscape:current-layer="svg1" />
  <path
     d="M 123.121,67.605305 C 188.241,116.4933 258.281,215.62231 284,268.81431 309.719,215.62231 379.759,116.4933 444.879,67.605305 491.866,32.329305 568,5.0353049 568,91.887305 c 0,17.345995 -9.945,145.713005 -15.778,166.555005 -20.275,72.453 -94.155,90.933 -159.875,79.748 114.875,19.551 144.097,84.311 80.986,149.071 -119.86,122.992 -172.272,-30.859 -185.702,-70.281 -2.462,-7.227 -3.614,-10.608 -3.631,-7.733 -0.017,-2.875 -1.169,0.506 -3.631,7.733 -13.43,39.422 -65.842,193.273 -185.702,70.281 -63.111,-64.76 -33.889,-129.52 80.986,-149.071 -65.72,11.185 -139.6,-7.295 -159.875,-79.748 C 9.945,237.60031 0,109.2333 0,91.887305 c 0,-86.8520001 76.134,-59.558 123.121,-24.282 z"
     fill="#1185fe"
     id="path1"
     style="fill:#ffffff;fill-opacity:1" />
</svg>
